# xmcd
#
# Track frame offsets:
#	150
#	13882
#	28652
#	38502
#	53130
#	67345
#	80572
#	94713
#	111312
#	122887
#	133577
#	144182
#
# Disc length: 2138 seconds
#
# Revision: 1
# Processed by: cddbd v1.5.1PL0 Copyright (c) Steve Scherf et al.
# Submitted via: EasyCDDAExtractor 7.1.0.1
#
DISCID=a608580c
DTITLE=Jerimiah Lockwood - American Primitive
DYEAR=2005
DGENRE=blues
TTITLE0=You Are My Shadow
TTITLE1=Baby What You Want Me To Do
TTITLE2=Jellyroll
TTITLE3=No More In This Life
TTITLE4=The Moon Is Rising
TTITLE5=Jitterbug Swing
TTITLE6=Love In The Dungeon
TTITLE7=Going To Brooklyn
TTITLE8=Stolen Moments
TTITLE9=Mama Your Son's Dead And Gone
TTITLE10=Addicted To Pain
TTITLE11=Now And Ever
EXTD=
EXTT0=
EXTT1=
EXTT2=
EXTT3=
EXTT4=
EXTT5=
EXTT6=
EXTT7=
EXTT8=
EXTT9=
EXTT10=
EXTT11=
PLAYORDER=
